# xmcd
#
# Track frame offsets:
# 150
# 6398
# 22837
# 45769
# 67148
# 84117
# 100780
# 116343
# 137459
# 156747
# 180169
# 195086
# 212065
# 233246
# 248937
# 280661
#
# Disc length: 4344 seconds
#
#
# Revision: 0
# Processed by: cddbd v1.5.2PL0 Copyright (c) Steve Scherf et al.
# Submitted via: FreeRIP 2.951 
#
DISCID=c110f610
DTITLE=Red Cloud - Traveling Circus
DYEAR=2006
DGENRE=Christian Rap
TTITLE0=The Ring Master
TTITLE1=Traveling Circus
TTITLE2=My Way
TTITLE3=The Coming
TTITLE4=8000 RPM's
TTITLE5=Bonifide Xtreme
TTITLE6=Don't Wear It Out
TTITLE7=Never Let You Go
TTITLE8=Battle Star Galactic
TTITLE9=Chit Chat
TTITLE10=War Party
TTITLE11=Put It On
TTITLE12=Night Owls
TTITLE13=Broken Jaw
TTITLE14=Indigenous Angel
TTITLE15=Battlestar Galactic Music Video
EXTD=Syntax Records Presents
EXTT0=
EXTT1=
EXTT2=
EXTT3=
EXTT4=
EXTT5=
EXTT6=
EXTT7=
EXTT8=
EXTT9=
EXTT10=
EXTT11=
EXTT12=
EXTT13=
EXTT14=
EXTT15=
PLAYORDER=
